<svg width="1200" height="630" viewBox="0 0 1200 630" fill="none" xmlns="http://www.w3.org/2000/svg">
  <defs>
    <!-- Blueprint grid pattern - small -->
    <pattern id="gridSmall" width="40" height="40" patternUnits="userSpaceOnUse">
      <path d="M 40 0 L 0 0 0 40" fill="none" stroke="#1a3a5c" stroke-width="0.5"/>
    </pattern>
    <!-- Blueprint grid pattern - large -->
    <pattern id="gridLarge" width="200" height="200" patternUnits="userSpaceOnUse">
      <path d="M 200 0 L 0 0 0 200" fill="none" stroke="#1a3a5c" stroke-width="1"/>
    </pattern>

    <!-- Brand gradient -->
    <linearGradient id="brandGradient" x1="0%" y1="0%" x2="100%" y2="0%">
      <stop offset="0%" stop-color="#38bdf8"/>
      <stop offset="100%" stop-color="#818cf8"/>
    </linearGradient>
  </defs>

  <!-- Dark background -->
  <rect width="1200" height="630" fill="#050508"/>

  <!-- Blueprint grid -->
  <rect width="1200" height="630" fill="url(#gridLarge)" opacity="0.4"/>
  <rect width="1200" height="630" fill="url(#gridSmall)" opacity="0.25"/>

  <!-- Simple Box icon -->
  <g transform="translate(100, 140)">
    <rect width="40" height="40" rx="6" fill="white"/>
    <g transform="translate(8, 8)">
      <path d="M12 2L3 7V17L12 22L21 17V7L12 2Z" stroke="#050508" stroke-width="2" fill="none" stroke-linejoin="round"/>
      <path d="M12 22V12" stroke="#050508" stroke-width="2"/>
      <path d="M21 7L12 12L3 7" stroke="#050508" stroke-width="2"/>
    </g>
  </g>

  <!-- Product name -->
  <text x="156" y="172" font-family="Inter, system-ui, sans-serif" font-size="40" font-weight="700" fill="white" letter-spacing="-0.02em">fabric</text>

  <!-- Main headline -->
  <text x="100" y="280" font-family="Inter, system-ui, sans-serif" font-size="52" font-weight="700" fill="white" letter-spacing="-0.03em">Seamless handoffs for</text>
  <text x="100" y="345" font-family="Inter, system-ui, sans-serif" font-size="52" font-weight="700" fill="url(#brandGradient)" letter-spacing="-0.03em">Agent Sandboxes</text>

  <!-- Tagline -->
  <text x="100" y="420" font-family="Inter, system-ui, sans-serif" font-size="22" fill="#71717a" font-weight="400">Run agents locally or in the cloud with one interface</text>

  <!-- Provider badges -->
  <g transform="translate(100, 480)">
    <rect width="90" height="32" rx="6" fill="#0f1419" stroke="#1a3a5c" stroke-width="1"/>
    <text x="45" y="21" font-family="ui-monospace, monospace" font-size="13" fill="#71717a" text-anchor="middle">Daytona</text>

    <rect x="100" width="65" height="32" rx="6" fill="#0f1419" stroke="#1a3a5c" stroke-width="1"/>
    <text x="132" y="21" font-family="ui-monospace, monospace" font-size="13" fill="#71717a" text-anchor="middle">E2B</text>

    <rect x="175" width="80" height="32" rx="6" fill="#0f1419" stroke="#1a3a5c" stroke-width="1"/>
    <text x="215" y="21" font-family="ui-monospace, monospace" font-size="13" fill="#71717a" text-anchor="middle">exe.dev</text>

    <rect x="265" width="70" height="32" rx="6" fill="#0f1419" stroke="#1a3a5c" stroke-width="1"/>
    <text x="300" y="21" font-family="ui-monospace, monospace" font-size="13" fill="#71717a" text-anchor="middle">Local</text>
  </g>

  <!-- Bottom accent line -->
  <rect x="0" y="622" width="1200" height="8" fill="url(#brandGradient)" opacity="0.5"/>
</svg>
